<svg width="363" height="57" viewBox="0 0 363 57" fill="none" xmlns="http://www.w3.org/2000/svg">
<g clip-path="url(#clip0_59_1372)">
<path d="M32.7534 38.1987L26.111 55.6358C25.8306 56.3677 24.8045 56.4019 24.483 55.6836L0.0820753 1.24512C-0.212076 0.588413 0.355704 -0.123023 1.05346 0.0206327L16.9376 3.20157C17.2181 3.2563 17.4507 3.44784 17.567 3.70779L32.7329 37.5352C32.8286 37.7473 32.8355 37.9935 32.7534 38.2124V38.1987Z" fill="white"/>
<path d="M55.6357 38.7117L49.1781 55.6493C48.9044 56.3608 47.9057 56.3881 47.5978 55.6972L23.8879 2.79787C23.6006 2.16168 24.1547 1.47077 24.8387 1.60758L40.2714 4.69959C40.545 4.75432 40.7708 4.93902 40.8871 5.19212L55.622 38.0618C55.7178 38.267 55.7246 38.5065 55.6425 38.7185L55.6357 38.7117Z" fill="white"/>
<path d="M57.3869 19.0582L47.8509 19.1608C46.7427 19.1745 45.9082 18.1689 46.1202 17.0812L47.9604 7.6547C48.1177 6.8475 48.8223 6.2592 49.6432 6.24551L59.8769 6.08134C61.0399 6.06081 61.895 7.16217 61.594 8.27721L59.0492 17.7653C58.844 18.5246 58.1668 19.0514 57.3801 19.0582H57.3869Z" fill="white"/>
<path d="M64.7269 31.4538L58.9534 31.5153C57.8452 31.529 57.0106 30.5234 57.2227 29.4357L58.3308 23.7443C58.4882 22.9371 59.1928 22.3488 60.0137 22.3351L66.2045 22.2325C67.3675 22.2119 68.2225 23.3133 67.9216 24.4283L66.3892 30.154C66.184 30.9133 65.5068 31.4401 64.7201 31.4469L64.7269 31.4538Z" fill="white"/>
</g>
<path d="M91.1964 30.8693H93.7021L95.1861 32.7933L96.245 34.0462L98.788 37.3125H96.1033L94.3732 35.12L93.6349 34.076L91.1964 30.8693ZM99.1534 28.3636C99.1534 30.0092 98.8452 31.4187 98.2287 32.592C97.6172 33.7603 96.782 34.6552 95.723 35.2766C94.669 35.8981 93.4734 36.2088 92.136 36.2088C90.7987 36.2088 89.6005 35.8981 88.5415 35.2766C87.4876 34.6502 86.6523 33.7528 86.0359 32.5845C85.4244 31.4112 85.1186 30.0043 85.1186 28.3636C85.1186 26.718 85.4244 25.3111 86.0359 24.1428C86.6523 22.9695 87.4876 22.0721 88.5415 21.4506C89.6005 20.8292 90.7987 20.5185 92.136 20.5185C93.4734 20.5185 94.669 20.8292 95.723 21.4506C96.782 22.0721 97.6172 22.9695 98.2287 24.1428C98.8452 25.3111 99.1534 26.718 99.1534 28.3636ZM96.3718 28.3636C96.3718 27.2053 96.1903 26.2283 95.8274 25.4329C95.4695 24.6325 94.9723 24.0284 94.3359 23.6207C93.6996 23.2081 92.9663 23.0018 92.136 23.0018C91.3058 23.0018 90.5724 23.2081 89.9361 23.6207C89.2997 24.0284 88.8001 24.6325 88.4371 25.4329C88.0792 26.2283 87.9002 27.2053 87.9002 28.3636C87.9002 29.522 88.0792 30.5014 88.4371 31.3018C88.8001 32.0973 89.2997 32.7013 89.9361 33.114C90.5724 33.5217 91.3058 33.7255 92.136 33.7255C92.9663 33.7255 93.6996 33.5217 94.3359 33.114C94.9723 32.7013 95.4695 32.0973 95.8274 31.3018C96.1903 30.5014 96.3718 29.522 96.3718 28.3636ZM108.971 31.1825V24.5455H111.671V36H109.053V33.9641H108.934C108.675 34.6055 108.25 35.13 107.659 35.5376C107.072 35.9453 106.349 36.1491 105.488 36.1491C104.738 36.1491 104.074 35.9826 103.497 35.6495C102.926 35.3114 102.478 34.8217 102.155 34.1804C101.832 33.5341 101.67 32.7536 101.67 31.8388V24.5455H104.37V31.4212C104.37 32.147 104.569 32.7237 104.966 33.1513C105.364 33.5788 105.886 33.7926 106.532 33.7926C106.93 33.7926 107.316 33.6957 107.688 33.5018C108.061 33.3079 108.367 33.0195 108.606 32.6367C108.849 32.2489 108.971 31.7642 108.971 31.1825ZM117.743 36.2312C117.017 36.2312 116.363 36.1019 115.782 35.8434C115.205 35.5799 114.747 35.1921 114.409 34.68C114.076 34.168 113.91 33.5366 113.91 32.7859C113.91 32.1396 114.029 31.6051 114.268 31.1825C114.506 30.7599 114.832 30.4219 115.245 30.1683C115.657 29.9148 116.122 29.7234 116.639 29.5941C117.161 29.4599 117.701 29.3629 118.257 29.3033C118.929 29.2337 119.473 29.1715 119.891 29.1168C120.308 29.0572 120.611 28.9677 120.8 28.8484C120.994 28.7241 121.091 28.5327 121.091 28.2741V28.2294C121.091 27.6676 120.925 27.2326 120.592 26.9244C120.258 26.6161 119.779 26.462 119.152 26.462C118.491 26.462 117.967 26.6062 117.579 26.8945C117.196 27.1829 116.937 27.5234 116.803 27.9162L114.283 27.5582C114.481 26.8622 114.81 26.2805 115.267 25.8132C115.724 25.3409 116.284 24.9879 116.945 24.7543C117.606 24.5156 118.337 24.3963 119.137 24.3963C119.689 24.3963 120.239 24.4609 120.785 24.5902C121.332 24.7195 121.832 24.9332 122.284 25.2315C122.737 25.5249 123.1 25.9251 123.373 26.4322C123.652 26.9393 123.791 27.5732 123.791 28.3338V36H121.196V34.4265H121.106C120.942 34.7447 120.711 35.043 120.413 35.3214C120.119 35.5948 119.749 35.8161 119.301 35.9851C118.859 36.1491 118.339 36.2312 117.743 36.2312ZM118.444 34.2475C118.986 34.2475 119.456 34.1406 119.853 33.9268C120.251 33.7081 120.557 33.4197 120.771 33.0618C120.989 32.7038 121.099 32.3136 121.099 31.891V30.5412C121.014 30.6108 120.87 30.6754 120.666 30.7351C120.467 30.7947 120.244 30.8469 119.995 30.8917C119.746 30.9364 119.5 30.9762 119.257 31.011C119.013 31.0458 118.802 31.0756 118.623 31.1005C118.22 31.1552 117.86 31.2447 117.541 31.369C117.223 31.4933 116.972 31.6673 116.788 31.891C116.604 32.1097 116.512 32.3931 116.512 32.7411C116.512 33.2383 116.694 33.6136 117.057 33.8672C117.42 34.1207 117.882 34.2475 118.444 34.2475ZM129.205 29.2884V36H126.505V24.5455H129.085V26.4918H129.22C129.483 25.8505 129.903 25.3409 130.48 24.9631C131.062 24.5852 131.78 24.3963 132.635 24.3963C133.426 24.3963 134.114 24.5653 134.701 24.9034C135.293 25.2415 135.75 25.7312 136.073 26.3725C136.401 27.0138 136.563 27.7919 136.558 28.7067V36H133.858V29.1243C133.858 28.3587 133.659 27.7596 133.262 27.3271C132.869 26.8945 132.324 26.6783 131.628 26.6783C131.156 26.6783 130.736 26.7827 130.368 26.9915C130.005 27.1953 129.719 27.4911 129.511 27.8789C129.307 28.2667 129.205 28.7365 129.205 29.2884ZM145.022 24.5455V26.6335H138.437V24.5455H145.022ZM140.063 21.8011H142.762V32.5547C142.762 32.9176 142.817 33.196 142.926 33.3899C143.041 33.5788 143.19 33.7081 143.374 33.7777C143.558 33.8473 143.762 33.8821 143.985 33.8821C144.154 33.8821 144.309 33.8697 144.448 33.8448C144.592 33.82 144.701 33.7976 144.776 33.7777L145.231 35.8881C145.087 35.9379 144.88 35.9925 144.612 36.0522C144.348 36.1119 144.025 36.1467 143.642 36.1566C142.966 36.1765 142.357 36.0746 141.815 35.8509C141.273 35.6222 140.843 35.2692 140.525 34.7919C140.212 34.3146 140.058 33.718 140.063 33.0021V21.8011ZM147.28 36V24.5455H149.979V36H147.28ZM148.637 22.9197C148.209 22.9197 147.841 22.7781 147.533 22.4947C147.225 22.2063 147.071 21.8608 147.071 21.4581C147.071 21.0504 147.225 20.7049 147.533 20.4215C147.841 20.1332 148.209 19.989 148.637 19.989C149.069 19.989 149.437 20.1332 149.741 20.4215C150.049 20.7049 150.203 21.0504 150.203 21.4581C150.203 21.8608 150.049 22.2063 149.741 22.4947C149.437 22.7781 149.069 22.9197 148.637 22.9197ZM158.475 24.5455V26.6335H151.89V24.5455H158.475ZM153.516 21.8011H156.215V32.5547C156.215 32.9176 156.27 33.196 156.38 33.3899C156.494 33.5788 156.643 33.7081 156.827 33.7777C157.011 33.8473 157.215 33.8821 157.438 33.8821C157.608 33.8821 157.762 33.8697 157.901 33.8448C158.045 33.82 158.154 33.7976 158.229 33.7777L158.684 35.8881C158.54 35.9379 158.333 35.9925 158.065 36.0522C157.801 36.1119 157.478 36.1467 157.095 36.1566C156.419 36.1765 155.81 36.0746 155.268 35.8509C154.726 35.6222 154.296 35.2692 153.978 34.7919C153.665 34.3146 153.511 33.718 153.516 33.0021V21.8011ZM164.029 36.2312C163.303 36.2312 162.649 36.1019 162.068 35.8434C161.491 35.5799 161.034 35.1921 160.695 34.68C160.362 34.168 160.196 33.5366 160.196 32.7859C160.196 32.1396 160.315 31.6051 160.554 31.1825C160.792 30.7599 161.118 30.4219 161.531 30.1683C161.943 29.9148 162.408 29.7234 162.925 29.5941C163.447 29.4599 163.987 29.3629 164.544 29.3033C165.215 29.2337 165.759 29.1715 166.177 29.1168C166.594 29.0572 166.898 28.9677 167.086 28.8484C167.28 28.7241 167.377 28.5327 167.377 28.2741V28.2294C167.377 27.6676 167.211 27.2326 166.878 26.9244C166.545 26.6161 166.065 26.462 165.438 26.462C164.777 26.462 164.253 26.6062 163.865 26.8945C163.482 27.1829 163.224 27.5234 163.089 27.9162L160.569 27.5582C160.768 26.8622 161.096 26.2805 161.553 25.8132C162.01 25.3409 162.57 24.9879 163.231 24.7543C163.892 24.5156 164.623 24.3963 165.423 24.3963C165.975 24.3963 166.525 24.4609 167.072 24.5902C167.618 24.7195 168.118 24.9332 168.57 25.2315C169.023 25.5249 169.386 25.9251 169.659 26.4322C169.938 26.9393 170.077 27.5732 170.077 28.3338V36H167.482V34.4265H167.392C167.228 34.7447 166.997 35.043 166.699 35.3214C166.405 35.5948 166.035 35.8161 165.588 35.9851C165.145 36.1491 164.626 36.2312 164.029 36.2312ZM164.73 34.2475C165.272 34.2475 165.742 34.1406 166.139 33.9268C166.537 33.7081 166.843 33.4197 167.057 33.0618C167.275 32.7038 167.385 32.3136 167.385 31.891V30.5412C167.3 30.6108 167.156 30.6754 166.952 30.7351C166.753 30.7947 166.53 30.8469 166.281 30.8917C166.032 30.9364 165.786 30.9762 165.543 31.011C165.299 31.0458 165.088 31.0756 164.909 31.1005C164.506 31.1552 164.146 31.2447 163.828 31.369C163.509 31.4933 163.258 31.6673 163.074 31.891C162.89 32.1097 162.798 32.3931 162.798 32.7411C162.798 33.2383 162.98 33.6136 163.343 33.8672C163.706 34.1207 164.168 34.2475 164.73 34.2475ZM178.511 24.5455V26.6335H171.926V24.5455H178.511ZM173.552 21.8011H176.252V32.5547C176.252 32.9176 176.306 33.196 176.416 33.3899C176.53 33.5788 176.679 33.7081 176.863 33.7777C177.047 33.8473 177.251 33.8821 177.475 33.8821C177.644 33.8821 177.798 33.8697 177.937 33.8448C178.081 33.82 178.191 33.7976 178.265 33.7777L178.72 35.8881C178.576 35.9379 178.369 35.9925 178.101 36.0522C177.838 36.1119 177.514 36.1467 177.132 36.1566C176.455 36.1765 175.846 36.0746 175.305 35.8509C174.763 35.6222 174.333 35.2692 174.014 34.7919C173.701 34.3146 173.547 33.718 173.552 33.0021V21.8011ZM180.769 36V24.5455H183.468V36H180.769ZM182.126 22.9197C181.699 22.9197 181.331 22.7781 181.022 22.4947C180.714 22.2063 180.56 21.8608 180.56 21.4581C180.56 21.0504 180.714 20.7049 181.022 20.4215C181.331 20.1332 181.699 19.989 182.126 19.989C182.559 19.989 182.927 20.1332 183.23 20.4215C183.538 20.7049 183.692 21.0504 183.692 21.4581C183.692 21.8608 183.538 22.2063 183.23 22.4947C182.927 22.7781 182.559 22.9197 182.126 22.9197ZM196.476 24.5455L192.397 36H189.414L185.335 24.5455H188.213L190.846 33.0543H190.965L193.605 24.5455H196.476ZM203.025 36.2237C201.877 36.2237 200.885 35.9851 200.05 35.5078C199.22 35.0256 198.581 34.3445 198.133 33.4645C197.686 32.5795 197.462 31.538 197.462 30.3398C197.462 29.1616 197.686 28.1275 198.133 27.2376C198.586 26.3427 199.217 25.6467 200.028 25.1495C200.838 24.6474 201.79 24.3963 202.884 24.3963C203.59 24.3963 204.256 24.5107 204.882 24.7393C205.514 24.9631 206.071 25.3111 206.553 25.7834C207.04 26.2557 207.423 26.8572 207.701 27.5881C207.98 28.3139 208.119 29.179 208.119 30.1832V31.011H198.73V29.1914H205.531C205.526 28.6744 205.414 28.2145 205.196 27.8118C204.977 27.4041 204.671 27.0835 204.278 26.8498C203.891 26.6161 203.438 26.4993 202.921 26.4993C202.369 26.4993 201.884 26.6335 201.467 26.902C201.049 27.1655 200.724 27.5135 200.49 27.946C200.261 28.3736 200.144 28.8434 200.139 29.3555V30.9439C200.139 31.6101 200.261 32.1818 200.505 32.6591C200.748 33.1314 201.089 33.4943 201.527 33.7479C201.964 33.9964 202.476 34.1207 203.063 34.1207C203.456 34.1207 203.811 34.0661 204.129 33.9567C204.447 33.8423 204.723 33.6758 204.957 33.457C205.191 33.2383 205.367 32.9673 205.486 32.6442L208.007 32.9276C207.848 33.5937 207.545 34.1754 207.097 34.6726C206.655 35.1648 206.088 35.5476 205.397 35.821C204.706 36.0895 203.915 36.2237 203.025 36.2237ZM218.945 36L214.635 20.7273H217.61L220.362 31.9506H220.504L223.442 20.7273H226.149L229.095 31.9581H229.229L231.981 20.7273H234.956L230.646 36H227.916L224.859 25.2837H224.74L221.675 36H218.945ZM236.755 36V24.5455H239.455V36H236.755ZM238.112 22.9197C237.685 22.9197 237.317 22.7781 237.009 22.4947C236.701 22.2063 236.546 21.8608 236.546 21.4581C236.546 21.0504 236.701 20.7049 237.009 20.4215C237.317 20.1332 237.685 19.989 238.112 19.989C238.545 19.989 238.913 20.1332 239.216 20.4215C239.524 20.7049 239.679 21.0504 239.679 21.4581C239.679 21.8608 239.524 22.2063 239.216 22.4947C238.913 22.7781 238.545 22.9197 238.112 22.9197ZM251.284 27.5732L248.823 27.8416C248.754 27.593 248.632 27.3594 248.458 27.1406C248.289 26.9219 248.06 26.7454 247.772 26.6112C247.483 26.4769 247.13 26.4098 246.713 26.4098C246.151 26.4098 245.679 26.5316 245.296 26.7752C244.918 27.0188 244.732 27.3345 244.737 27.7223C244.732 28.0554 244.853 28.3263 245.102 28.5352C245.355 28.744 245.773 28.9155 246.355 29.0497L248.309 29.4673C249.392 29.701 250.198 30.0714 250.725 30.5785C251.257 31.0856 251.525 31.7493 251.53 32.5696C251.525 33.2905 251.314 33.9268 250.896 34.4787C250.484 35.0256 249.909 35.4531 249.174 35.7614C248.438 36.0696 247.593 36.2237 246.638 36.2237C245.236 36.2237 244.108 35.9304 243.252 35.3438C242.397 34.7521 241.888 33.9293 241.724 32.8754L244.356 32.6218C244.475 33.1388 244.729 33.5291 245.117 33.7926C245.505 34.0561 246.009 34.1879 246.631 34.1879C247.272 34.1879 247.787 34.0561 248.174 33.7926C248.567 33.5291 248.763 33.2035 248.763 32.8157C248.763 32.4876 248.637 32.2166 248.383 32.0028C248.135 31.7891 247.747 31.625 247.22 31.5107L245.266 31.1005C244.167 30.8718 243.354 30.4865 242.827 29.9446C242.3 29.3977 242.039 28.7067 242.044 27.8714C242.039 27.1655 242.231 26.554 242.619 26.0369C243.011 25.5149 243.556 25.1122 244.252 24.8288C244.953 24.5405 245.761 24.3963 246.675 24.3963C248.018 24.3963 249.074 24.6822 249.845 25.2539C250.62 25.8256 251.1 26.5987 251.284 27.5732ZM258.007 36.2013C257.107 36.2013 256.302 35.9702 255.591 35.5078C254.88 35.0455 254.318 34.3743 253.905 33.4943C253.493 32.6143 253.286 31.5455 253.286 30.2876C253.286 29.0149 253.495 27.9411 253.913 27.0661C254.335 26.1861 254.905 25.5224 255.621 25.0749C256.336 24.6225 257.134 24.3963 258.014 24.3963C258.686 24.3963 259.237 24.5107 259.67 24.7393C260.102 24.9631 260.445 25.234 260.699 25.5522C260.953 25.8654 261.149 26.1612 261.288 26.4396H261.4V20.7273H264.107V36H261.452V34.1953H261.288C261.149 34.4737 260.948 34.7695 260.684 35.0827C260.421 35.391 260.073 35.6545 259.64 35.8732C259.208 36.092 258.663 36.2013 258.007 36.2013ZM258.76 33.9865C259.332 33.9865 259.819 33.8324 260.222 33.5241C260.624 33.2109 260.93 32.7759 261.139 32.2191C261.348 31.6623 261.452 31.0135 261.452 30.2727C261.452 29.532 261.348 28.8881 261.139 28.3413C260.935 27.7944 260.632 27.3693 260.229 27.0661C259.831 26.7628 259.342 26.6112 258.76 26.6112C258.159 26.6112 257.656 26.7678 257.254 27.081C256.851 27.3942 256.548 27.8267 256.344 28.3786C256.14 28.9304 256.038 29.5618 256.038 30.2727C256.038 30.9886 256.14 31.6275 256.344 32.1893C256.553 32.7461 256.858 33.1861 257.261 33.5092C257.669 33.8274 258.169 33.9865 258.76 33.9865ZM271.98 36.2237C270.862 36.2237 269.892 35.9776 269.072 35.4854C268.252 34.9933 267.615 34.3047 267.163 33.4197C266.715 32.5348 266.492 31.5007 266.492 30.3175C266.492 29.1342 266.715 28.0977 267.163 27.2077C267.615 26.3178 268.252 25.6268 269.072 25.1346C269.892 24.6424 270.862 24.3963 271.98 24.3963C273.099 24.3963 274.068 24.6424 274.889 25.1346C275.709 25.6268 276.343 26.3178 276.79 27.2077C277.243 28.0977 277.469 29.1342 277.469 30.3175C277.469 31.5007 277.243 32.5348 276.79 33.4197C276.343 34.3047 275.709 34.9933 274.889 35.4854C274.068 35.9776 273.099 36.2237 271.98 36.2237ZM271.995 34.0611C272.602 34.0611 273.109 33.8945 273.516 33.5614C273.924 33.2234 274.227 32.771 274.426 32.2042C274.63 31.6374 274.732 31.006 274.732 30.31C274.732 29.609 274.63 28.9751 274.426 28.4084C274.227 27.8366 273.924 27.3817 273.516 27.0437C273.109 26.7056 272.602 26.5366 271.995 26.5366C271.374 26.5366 270.857 26.7056 270.444 27.0437C270.036 27.3817 269.731 27.8366 269.527 28.4084C269.328 28.9751 269.228 29.609 269.228 30.31C269.228 31.006 269.328 31.6374 269.527 32.2042C269.731 32.771 270.036 33.2234 270.444 33.5614C270.857 33.8945 271.374 34.0611 271.995 34.0611ZM279.76 36V24.5455H282.34V26.4918H282.475C282.713 25.8356 283.108 25.3235 283.66 24.9556C284.212 24.5827 284.871 24.3963 285.637 24.3963C286.412 24.3963 287.066 24.5852 287.598 24.9631C288.135 25.3359 288.513 25.8455 288.731 26.4918H288.851C289.104 25.8555 289.532 25.3484 290.133 24.9705C290.74 24.5877 291.458 24.3963 292.289 24.3963C293.343 24.3963 294.203 24.7294 294.869 25.3956C295.535 26.0618 295.868 27.0337 295.868 28.3114V36H293.161V28.729C293.161 28.0181 292.972 27.4986 292.594 27.1705C292.216 26.8374 291.754 26.6708 291.207 26.6708C290.556 26.6708 290.046 26.8746 289.678 27.2823C289.316 27.685 289.134 28.2095 289.134 28.8558V36H286.487V28.6172C286.487 28.0256 286.308 27.5533 285.95 27.2003C285.597 26.8473 285.134 26.6708 284.563 26.6708C284.175 26.6708 283.822 26.7702 283.504 26.9691C283.186 27.163 282.932 27.4389 282.743 27.7969C282.554 28.1499 282.46 28.5625 282.46 29.0348V36H279.76ZM303.935 36V20.7273H306.702V27.1928H313.779V20.7273H316.553V36H313.779V29.5121H306.702V36H303.935ZM324.439 36.2237C323.321 36.2237 322.351 35.9776 321.531 35.4854C320.71 34.9933 320.074 34.3047 319.622 33.4197C319.174 32.5348 318.951 31.5007 318.951 30.3175C318.951 29.1342 319.174 28.0977 319.622 27.2077C320.074 26.3178 320.71 25.6268 321.531 25.1346C322.351 24.6424 323.321 24.3963 324.439 24.3963C325.558 24.3963 326.527 24.6424 327.348 25.1346C328.168 25.6268 328.802 26.3178 329.249 27.2077C329.702 28.0977 329.928 29.1342 329.928 30.3175C329.928 31.5007 329.702 32.5348 329.249 33.4197C328.802 34.3047 328.168 34.9933 327.348 35.4854C326.527 35.9776 325.558 36.2237 324.439 36.2237ZM324.454 34.0611C325.061 34.0611 325.568 33.8945 325.975 33.5614C326.383 33.2234 326.686 32.771 326.885 32.2042C327.089 31.6374 327.191 31.006 327.191 30.31C327.191 29.609 327.089 28.9751 326.885 28.4084C326.686 27.8366 326.383 27.3817 325.975 27.0437C325.568 26.7056 325.061 26.5366 324.454 26.5366C323.833 26.5366 323.316 26.7056 322.903 27.0437C322.495 27.3817 322.19 27.8366 321.986 28.4084C321.787 28.9751 321.687 29.609 321.687 30.31C321.687 31.006 321.787 31.6374 321.986 32.2042C322.19 32.771 322.495 33.2234 322.903 33.5614C323.316 33.8945 323.833 34.0611 324.454 34.0611ZM332.219 36V24.5455H334.799V26.4918H334.934C335.172 25.8356 335.567 25.3235 336.119 24.9556C336.671 24.5827 337.33 24.3963 338.096 24.3963C338.871 24.3963 339.525 24.5852 340.057 24.9631C340.594 25.3359 340.972 25.8455 341.19 26.4918H341.31C341.563 25.8555 341.991 25.3484 342.592 24.9705C343.199 24.5877 343.917 24.3963 344.748 24.3963C345.801 24.3963 346.662 24.7294 347.328 25.3956C347.994 26.0618 348.327 27.0337 348.327 28.3114V36H345.62V28.729C345.62 28.0181 345.431 27.4986 345.053 27.1705C344.675 26.8374 344.213 26.6708 343.666 26.6708C343.015 26.6708 342.505 26.8746 342.137 27.2823C341.775 27.685 341.593 28.2095 341.593 28.8558V36H338.946V28.6172C338.946 28.0256 338.767 27.5533 338.409 27.2003C338.056 26.8473 337.593 26.6708 337.022 26.6708C336.634 26.6708 336.281 26.7702 335.963 26.9691C335.645 27.163 335.391 27.4389 335.202 27.7969C335.013 28.1499 334.919 28.5625 334.919 29.0348V36H332.219ZM356.137 36.2237C354.988 36.2237 353.997 35.9851 353.161 35.5078C352.331 35.0256 351.692 34.3445 351.245 33.4645C350.797 32.5795 350.574 31.538 350.574 30.3398C350.574 29.1616 350.797 28.1275 351.245 27.2376C351.697 26.3427 352.329 25.6467 353.139 25.1495C353.949 24.6474 354.901 24.3963 355.995 24.3963C356.701 24.3963 357.367 24.5107 357.994 24.7393C358.625 24.9631 359.182 25.3111 359.664 25.7834C360.151 26.2557 360.534 26.8572 360.813 27.5881C361.091 28.3139 361.23 29.179 361.23 30.1832V31.011H351.841V29.1914H358.642C358.638 28.6744 358.526 28.2145 358.307 27.8118C358.088 27.4041 357.782 27.0835 357.39 26.8498C357.002 26.6161 356.549 26.4993 356.032 26.4993C355.481 26.4993 354.996 26.6335 354.578 26.902C354.161 27.1655 353.835 27.5135 353.601 27.946C353.373 28.3736 353.256 28.8434 353.251 29.3555V30.9439C353.251 31.6101 353.373 32.1818 353.616 32.6591C353.86 33.1314 354.2 33.4943 354.638 33.7479C355.075 33.9964 355.587 34.1207 356.174 34.1207C356.567 34.1207 356.922 34.0661 357.241 33.9567C357.559 33.8423 357.835 33.6758 358.068 33.457C358.302 33.2383 358.478 32.9673 358.598 32.6442L361.118 32.9276C360.959 33.5937 360.656 34.1754 360.209 34.6726C359.766 35.1648 359.199 35.5476 358.508 35.821C357.817 36.0895 357.027 36.2237 356.137 36.2237Z" fill="white"/>
<defs>
<clipPath id="clip0_59_1372">
<rect width="67.99" height="56.2034" fill="white"/>
</clipPath>
</defs>
</svg>
